<!DOCTYPE svg PUBLIC "-//W3C//DTD SVG 1.1//EN" "http://www.w3.org/Graphics/SVG/1.1/DTD/svg11.dtd">
<!-- Uploaded to: SVG Repo, www.svgrepo.com, Transformed by: SVG Repo Mixer Tools -->
<svg height="800px" width="800px" version="1.1" id="Layer_1" xmlns="http://www.w3.org/2000/svg" xmlns:xlink="http://www.w3.org/1999/xlink" viewBox="0 0 512 512" xml:space="preserve" fill="#000000">
<g id="SVGRepo_bgCarrier" stroke-width="0"/>
<g id="SVGRepo_tracerCarrier" stroke-linecap="round" stroke-linejoin="round"/>
<g id="SVGRepo_iconCarrier"> <path style="fill:#E9EBEF;" d="M224,192c-12.297,0-24.226-3.081-35.038-8.986c-7.484,5.803-16.666,8.986-26.402,8.986 c-21.103,0-38.741-15.095-42.692-35.046c-5.837,2.833-12.228,4.326-18.748,4.326c-23.996,0-43.52-19.524-43.52-43.52 c0-22.093,16.546-40.397,37.897-43.162c10.138-18.91,29.909-31.078,51.703-31.078c1.468,0,2.944,0.06,4.429,0.179 c5.41-17.86,22.042-30.899,41.651-30.899c19.9,0,36.727,13.431,41.89,31.71c1.937,0.333,3.908,0.751,5.914,1.263 c4.446-1.502,9.02-2.253,13.636-2.253c7.407,0,14.66,1.937,21.094,5.555c7.765-3.652,16.273-5.555,24.986-5.555 c21.794,0,41.566,12.177,51.703,31.087c21.35,2.765,37.897,21.06,37.897,43.162c0,23.996-19.524,43.52-43.52,43.52 c-7.407,0-14.652-1.937-21.094-5.555c-7.774,3.652-16.273,5.555-24.994,5.555c-5.171,0-10.3-0.708-15.326-2.133 C271.812,179.422,248.798,192,224,192z"/> <path style="fill:#f8b53a;" d="M121.6,499.2c-21.171,0-38.4-17.229-38.4-38.4V159.565l13.943,1.246 c0.828,0.077,1.638,0.179,2.449,0.29c0.512,0.068,1.007,0.179,1.527,0.179c2.765,0,5.547-0.273,8.286-0.811l9.677-1.911l4.309,8.875 C130.645,182.357,146.014,192,162.56,192c7.279,0,14.541-1.903,21.018-5.513l5.53-3.081l5.811,2.534 C204.143,189.961,213.931,192,224,192c21.999,0,42.769-9.779,56.96-26.837l4.599-5.521l7.108,1.05 c2.662,0.393,5.402,0.589,8.132,0.589c6.938,0,13.73-1.195,20.19-3.558l4.71-1.715l4.625,1.937 c5.291,2.219,10.854,3.337,16.555,3.337c0.521,0,1.015-0.102,1.527-0.179c0.811-0.111,1.621-0.213,2.449-0.29l13.943-1.246V460.8 c0,21.171-17.229,38.4-38.4,38.4H121.6z"/> <g> <path style="fill:#573A32;" d="M147.2,243.2c-7.074,0-12.8,5.726-12.8,12.8v179.2c0,7.074,5.726,12.8,12.8,12.8 c7.074,0,12.8-5.726,12.8-12.8V256C160,248.926,154.274,243.2,147.2,243.2z"/> <path style="fill:#573A32;" d="M224,243.2c-7.074,0-12.8,5.726-12.8,12.8v179.2c0,7.074,5.726,12.8,12.8,12.8 c7.074,0,12.8-5.726,12.8-12.8V256C236.8,248.926,231.074,243.2,224,243.2z"/> <path style="fill:#573A32;" d="M300.8,243.2c-7.074,0-12.8,5.726-12.8,12.8v179.2c0,7.074,5.726,12.8,12.8,12.8 s12.8-5.726,12.8-12.8V256C313.6,248.926,307.874,243.2,300.8,243.2z"/> <path style="fill:#573A32;" d="M121.6,512h204.8c28.228,0,51.2-22.972,51.2-51.2v-25.6H416c28.228,0,51.2-22.972,51.2-51.2V230.4 c0-28.228-22.972-51.2-51.2-51.2h-38.4v-14.345c15.377-10.069,25.6-27.383,25.6-47.095c0-26.342-18.176-48.521-42.65-54.639 C347.52,43.238,325.197,30.72,300.8,30.72c-8.465,0-16.768,1.476-24.585,4.326c-6.775-2.833-14.071-4.326-21.495-4.326 c-3.627,0-7.219,0.358-10.752,1.058C234.829,12.979,215.543,0,193.28,0c-21.888,0-40.9,12.553-50.219,30.839 c-22.767,1.323-43.324,13.525-55.612,32.282C62.976,69.239,44.8,91.418,44.8,117.76c0,19.712,10.223,37.026,25.6,47.095V460.8 C70.4,489.028,93.372,512,121.6,512z M352,460.8c0,14.14-11.46,25.6-25.6,25.6H121.6c-14.14,0-25.6-11.46-25.6-25.6V173.559 c1.715,0.154,3.371,0.521,5.12,0.521c3.627,0,7.228-0.358,10.752-1.058c9.139,18.799,28.425,31.778,50.688,31.778 c9.609,0,18.987-2.526,27.247-7.125c10.769,4.693,22.323,7.125,34.193,7.125c26.095,0,50.492-11.861,66.799-31.445 c3.302,0.486,6.647,0.725,10.001,0.725c8.465,0,16.768-1.476,24.585-4.335c6.775,2.842,14.071,4.335,21.495,4.335 c1.758,0,3.405-0.358,5.12-0.521V460.8z M416,204.8c14.14,0,25.6,11.46,25.6,25.6V384c0,14.14-11.46,25.6-25.6,25.6h-38.4V204.8 H416z M101.12,87.04c0.939,0,1.818,0.196,2.739,0.273c6.272-17.997,23.202-30.993,43.341-30.993c5.521,0,10.743,1.135,15.65,2.91 c-0.094-0.973-0.29-1.911-0.29-2.91c0-16.964,13.756-30.72,30.72-30.72S224,39.356,224,56.32c6.238,0,12.134,1.203,17.809,2.935 c3.934-1.835,8.277-2.935,12.911-2.935c7.834,0,14.916,3.021,20.343,7.859c7.347-4.966,16.205-7.859,25.737-7.859 c20.139,0,37.069,12.996,43.341,30.993c0.913-0.085,1.801-0.273,2.739-0.273c16.964,0,30.72,13.756,30.72,30.72 s-13.756,30.72-30.72,30.72c-7.842,0-14.916-3.021-20.343-7.859c-7.347,4.958-16.205,7.859-25.737,7.859 c-7.612,0-14.686-2.022-21.009-5.291C270.106,164.395,248.832,179.2,224,179.2c-13.867,0-26.53-4.77-36.813-12.518 c-5.589,7.552-14.498,12.518-24.627,12.518c-16.964,0-30.72-13.756-30.72-30.72c0-0.939,0.196-1.818,0.273-2.739 c-3.772-1.314-7.398-2.927-10.658-5.12c-5.427,4.83-12.501,7.859-20.343,7.859c-16.964,0-30.72-13.756-30.72-30.72 S84.156,87.04,101.12,87.04z"/> </g> </g>
</svg>